<svg xmlns="http://www.w3.org/2000/svg" version="1.1" xmlns:xlink="http://www.w3.org/1999/xlink" xmlns:svgjs="http://svgjs.dev/svgjs" width="1000" height="590" viewBox="0 0 1000 590"><g transform="matrix(1,0,0,1,-0.6060605994403545,-0.572871197972745)"><svg viewBox="0 0 396 234" data-background-color="#ffffff" preserveAspectRatio="xMidYMid meet" height="590" width="1000" xmlns="http://www.w3.org/2000/svg" xmlns:xlink="http://www.w3.org/1999/xlink"><g id="tight-bounds" transform="matrix(1,0,0,1,0.24000000262162757,0.22720654292479026)"><svg viewBox="0 0 395.52 233.54558601943467" height="233.54558601943467" width="395.52"><g><svg viewBox="0 0 395.52 233.54558601943467" height="233.54558601943467" width="395.52"><g transform="matrix(1,0,0,1,0,144.34054154424194)"><svg viewBox="0 0 395.52 89.20504447519272" height="89.20504447519272" width="395.52"><g id="textblocktransform"><svg viewBox="0 0 395.52 89.20504447519272" height="89.20504447519272" width="395.52" id="textblock"><g><svg viewBox="0 0 395.52 89.20504447519272" height="89.20504447519272" width="395.52"><g transform="matrix(1,0,0,1,0,0)"><svg width="395.52" viewBox="-0.11999999731779099 -32.15999984741211 202.3300018310547 45.63999938964844" height="89.20504447519272" data-palette-color="#22222c"><path d="M19.08-12.08L19.08-12.08Q21.04-12.08 21.64-9.48L21.64-9.48Q21.88-8.52 21.88-7.48L21.88-7.48Q21.88-5.04 20.64-2.12L20.64-2.12Q18.48 2.92 14.12 4.96L14.12 4.96Q11.72 6.08 8.96 6.08L8.96 6.08Q3.04 6.08 0.88 1.76L0.88 1.76Q-0.12-0.24-0.12-2.52-0.12-4.8 0.72-7.28L0.72-7.28Q2.56-12.72 7.28-16.16L7.28-16.16Q10.2-18.24 13.72-19.04L13.72-19.04Q10.52-20.2 10.52-23.04 10.52-25.88 13.36-28.42 16.2-30.96 20.52-30.96L20.52-30.96Q21.24-30.96 21.6-30.4 21.96-29.84 21.92-29.28L21.92-29.28 21.92-28.76Q21.6-28.92 20.56-28.92L20.56-28.92Q16.92-28.92 14.44-26.36L14.44-26.36Q12.68-24.56 12.68-22.8L12.68-22.8Q12.68-19.48 17.68-19.48L17.68-19.48Q18.12-19.48 18.42-19.22 18.72-18.96 18.92-18.44L18.92-18.44Q12-18.44 7.32-13.12L7.32-13.12Q2.92-8.16 2.92-2.08L2.92-2.08Q2.92 1.36 4.92 3.24L4.92 3.24Q6.48 4.76 9 4.76L9 4.76Q14.68 4.76 17.72-0.04L17.72-0.04Q19.72-3.16 19.72-6.6L19.72-6.6Q19.72-10.36 17.84-11.04L17.84-11.04Q17.52-11.16 17.16-11.16L17.16-11.16Q17.68-12.08 19.08-12.08ZM23.32-21.92L23.32-21.92Q23.32-21.72 22.96-21.72 22.6-21.72 22.26-21.88 21.92-22.04 21.92-22.32L21.92-22.32Q21.92-26.4 22.84-28.9 23.76-31.4 25.28-31.4L25.28-31.4Q25.68-31.4 25.96-31.1 26.24-30.8 26.24-30.36L26.24-30.36Q24.4-28.52 23.64-25L23.64-25Q23.32-23.52 23.32-21.92ZM32.84-3.68L32.84-3.68Q32.84-1.28 34.12-1.28L34.12-1.28Q35.76-1.28 37.72-5.68L37.72-5.68Q40-10.72 40-15.12L40-15.12Q40-18.12 38.42-18.12 36.84-18.12 34.96-15.68 33.08-13.24 31.62-10.02 30.16-6.8 29.12-3.94 28.08-1.08 27.86 0.3 27.64 1.68 27.52 2.38 27.4 3.08 27.14 4.6 26.88 6.12 26.66 6.92 26.44 7.72 26.08 8.94 25.72 10.16 25.34 10.82 24.96 11.48 24.48 12.16L24.48 12.16Q23.52 13.48 22.04 13.48L22.04 13.48Q20.12 13.48 20.12 11.28L20.12 11.28Q20.12 7.36 26.12-3.48L26.12-3.48Q26.72-7.88 27.36-10.6L27.36-10.6Q28.76-17.04 30.34-20.58 31.92-24.12 33.2-24.12L33.2-24.12Q33.84-24.12 33.84-23.36L33.84-23.36Q31.92-18.28 29.88-10.48L29.88-10.48 29.64-9.56 30.16-9.56Q34.72-19.48 38.76-19.48L38.76-19.48Q42.52-19.48 42.52-13.52L42.52-13.52Q42.52-9.2 40.32-4.88L40.32-4.88Q37.88 0 34.48 0L34.48 0Q31.72 0 31.72-3.6L31.72-3.6Q31.72-5.52 32.78-8.02 33.84-10.52 35.56-11.72L35.56-11.72Q35.92-11.92 36.16-11.56L36.16-11.56Q36.2-11.36 36.12-11.28L36.12-11.28Q34.6-10.08 33.72-7.76 32.84-5.44 32.84-3.68ZM21.2 10.92L21.2 10.92Q21.2 12.12 22.08 12.12L22.08 12.12Q23.88 12.12 24.76 7.24L24.76 7.24Q25.08 5.56 25.88-1.24L25.88-1.24Q22.24 5.8 21.36 9.68L21.36 9.68Q21.2 10.4 21.2 10.92ZM47.48-1.36L47.48-1.36Q47.48 1.44 49.28 1.44L49.28 1.44Q50.96 1.44 52.42-1.32 53.88-4.08 53.88-8.28L53.88-8.28Q53.88-10.32 53.14-14.04 52.4-17.76 52.4-18.9 52.4-20.04 52.48-20.4L52.48-20.4Q51.96-19.56 49.48-14.82 47-10.08 45.08-7.32L45.08-7.32Q44.92-7.16 44.64-7.22 44.36-7.28 44.18-7.46 44-7.64 44-7.72 44-7.8 44.04-7.84L44.04-7.84Q45.92-10.56 48.42-15.34 50.92-20.12 52.6-22.48 54.28-24.84 55.92-24.84L55.92-24.84Q56.76-24.84 56.76-24.12L56.76-24.12Q56.76-23.64 56.08-22.84L56.08-22.84Q53.92-20.4 53.92-17.84L53.92-17.84Q53.92-16.32 55.08-11.98 56.24-7.64 56.24-5.68L56.24-5.68Q56.24-2.16 54.28 0.3 52.32 2.76 49.84 2.76L49.84 2.76Q46.32 2.76 46.32-1.28L46.32-1.28Q46.32-4.32 48.18-7.64 50.04-10.96 51.92-12.12L51.92-12.12Q52.28-12.36 52.38-11.84 52.48-11.32 52.24-11.16L52.24-11.16Q50.12-9.96 48.56-6.04L48.56-6.04Q47.48-3.28 47.48-1.36ZM63.15 0L63.15 0Q59.87 0 59.87-5.16L59.87-5.16Q59.87-8.24 61.39-11.92L61.39-11.92Q63.51-17.08 66.95-18.96L66.95-18.96Q68.43-19.76 69.71-19.76 70.99-19.76 71.73-19.2 72.47-18.64 72.67-18.08L72.67-18.08 72.91-17.56Q72.79-16.88 72.23-16.88L72.23-16.88Q71.59-16.88 71.49-17.18 71.39-17.48 71.27-17.7 71.15-17.92 70.71-18.3 70.27-18.68 69.71-18.68L69.71-18.68Q67.11-18.68 64.99-14L64.99-14Q62.59-8.6 62.59-3.84L62.59-3.84Q62.59-1.44 63.55-1.44L63.55-1.44Q64.31-1.44 65.69-3.14 67.07-4.84 68.59-7.4L68.59-7.4Q71.23-11.8 72.87-15.04L72.87-15.04Q74.23-17.92 75.67-17.92L75.67-17.92Q76.43-17.92 76.43-17L76.43-17Q76.07-16.24 75.51-14.84 74.95-13.44 74.03-9.28 73.11-5.12 73.11-1 73.11 3.12 74.35 3.12L74.35 3.12Q74.83 3.12 75.23 2.7 75.63 2.28 75.95 1.44L75.95 1.44Q76.07 1 76.51 1L76.51 1Q76.67 1 76.75 1.12 76.83 1.24 76.75 1.52 76.67 1.8 76.47 2.3 76.27 2.8 75.61 3.64 74.95 4.48 74.23 4.48L74.23 4.48Q72.55 4.48 71.65 2.28 70.75 0.08 70.75-2.92 70.75-5.92 71.19-8.68L71.19-8.68 70.79-8.68Q65.71 0 63.15 0ZM81.63-6.48L81.99-6.48Q87.15-19.24 92.03-19.24L92.03-19.24Q94.07-19.24 94.07-17.28L94.07-17.28Q93.79-16.36 93.35-14.86 92.91-13.36 92.17-9.48 91.43-5.6 91.43-2.68L91.43-2.68Q91.43 1.56 92.67 1.56L92.67 1.56Q93.15 1.56 93.59 1.18 94.03 0.8 94.19 0.8L94.19 0.8Q94.75 0.8 94.19 1.68L94.19 1.68Q93.99 1.96 93.45 2.44 92.91 2.92 92.35 2.92L92.35 2.92Q90.83 2.92 89.97 0.74 89.11-1.44 89.11-4.92L89.11-4.92Q89.11-10.44 90.83-17.04L90.83-17.04Q90.99-17.56 90.51-17.56L90.51-17.56Q90.19-17.56 89.79-17.24L89.79-17.24Q87.87-15.56 85.75-11.68 83.63-7.8 82.43-4.74 81.23-1.68 81.23-1.18 81.23-0.68 80.67-0.68L80.67-0.68Q79.39-0.68 79.39-3.84L79.39-3.84Q79.39-9.8 80.61-14.64 81.83-19.48 83.55-19.48L83.55-19.48Q84.27-19.48 84.27-18.6L84.27-18.6Q82.43-12.64 81.63-6.48L81.63-6.48ZM130.67-20.56L130.67-20.56Q130.67-20.4 130.33-20.36 129.99-20.32 129.65-20.48 129.31-20.64 129.31-20.92L129.31-20.92Q129.31-25 130.23-27.5 131.15-30 132.63-30L132.63-30Q133.03-30 133.31-29.72 133.59-29.44 133.59-28.96L133.59-28.96Q131.75-27.12 130.99-23.6L130.99-23.6Q130.67-22.16 130.67-20.56ZM128.27-29.04L128.27-29.04Q122.75-29.04 118.39-22.6L118.39-22.6Q114.63-17.04 113.47-9.64L113.47-9.64Q113.07-7.2 113.07-5.16L113.07-5.16Q113.07-1.24 114.51 1.14 115.95 3.52 118.55 3.52L118.55 3.52Q122.07 3.52 124.55-0.52L124.55-0.52Q126.23-3.24 126.23-5.32L126.23-5.32Q126.23-6.24 125.75-6.24L125.75-6.24Q125.99-7.16 126.95-7.16L126.95-7.16Q128.07-7.16 128.07-5.56L128.07-5.56Q128.07-2.56 125.43 0.84L125.43 0.84Q122.27 4.88 118.03 4.88L118.03 4.88Q112.71 4.88 110.83-0.44L110.83-0.44Q109.91-2.92 109.91-6.06 109.91-9.2 110.95-13.08L110.95-13.08Q112.95-20.76 117.69-25.84 122.43-30.92 128.19-30.96L128.19-30.96Q128.99-30.96 129.35-30.44 129.71-29.92 129.67-29.44L129.67-29.44 129.67-28.92Q129.35-29.04 128.27-29.04ZM144.42-11.48L144.42-11.48Q142.9-11.48 142.9-14.8L142.9-14.8Q142.9-16.68 143.62-18.32L143.62-18.32Q140.9-15.96 137.54-9.54 134.18-3.12 134.18-1.16L134.18-1.16Q134.18-0.68 133.54-0.68L133.54-0.68Q132.38-0.68 132.38-3.84L132.38-3.84Q132.38-9.8 133.58-14.64 134.78-19.48 136.5-19.48L136.5-19.48Q137.26-19.48 137.26-18.6L137.26-18.6Q135.42-12.76 134.62-6.64L134.62-6.64 134.9-6.64Q138.14-14.12 142.06-18.32L142.06-18.32Q144.3-20.72 146.14-20.72L146.14-20.72Q146.54-20.72 146.8-20.48 147.06-20.24 147.06-19.88L147.06-19.88Q146.78-19.6 146.38-19.04 145.98-18.48 145.3-16.38 144.62-14.28 144.62-11.8L144.62-11.8Q144.62-11.48 144.42-11.48ZM150.38 0L150.38 0Q147.1 0 147.1-5.16L147.1-5.16Q147.1-8.24 148.62-11.92L148.62-11.92Q150.74-17.08 154.18-18.96L154.18-18.96Q155.66-19.76 156.94-19.76 158.22-19.76 158.96-19.2 159.7-18.64 159.9-18.08L159.9-18.08 160.14-17.56Q160.02-16.88 159.46-16.88L159.46-16.88Q158.82-16.88 158.72-17.18 158.62-17.48 158.5-17.7 158.38-17.92 157.94-18.3 157.5-18.68 156.94-18.68L156.94-18.68Q154.34-18.68 152.22-14L152.22-14Q149.82-8.6 149.82-3.84L149.82-3.84Q149.82-1.44 150.78-1.44L150.78-1.44Q151.54-1.44 152.92-3.14 154.3-4.84 155.82-7.4L155.82-7.4Q158.46-11.8 160.1-15.04L160.1-15.04Q161.46-17.92 162.9-17.92L162.9-17.92Q163.66-17.92 163.66-17L163.66-17Q163.3-16.24 162.74-14.84 162.18-13.44 161.26-9.28 160.34-5.12 160.34-1 160.34 3.12 161.58 3.12L161.58 3.12Q162.06 3.12 162.46 2.7 162.86 2.28 163.18 1.44L163.18 1.44Q163.3 1 163.74 1L163.74 1Q163.9 1 163.98 1.12 164.06 1.24 163.98 1.52 163.9 1.8 163.7 2.3 163.5 2.8 162.84 3.64 162.18 4.48 161.46 4.48L161.46 4.48Q159.78 4.48 158.88 2.28 157.98 0.08 157.98-2.92 157.98-5.92 158.42-8.68L158.42-8.68 158.02-8.68Q152.94 0 150.38 0ZM164.46 12.52L164.46 12.52Q162.42 12.52 162.42 10.08L162.42 10.08Q162.42 8.36 163.5 5.36 164.58 2.36 165.66 0.16L165.66 0.16Q167.62-3.68 168.46-5.12L168.46-5.12Q169.38-13.72 170.1-17.44L170.1-17.44Q169.14-17.32 168.18-17.32 167.22-17.32 167.02-18.32L167.02-18.32Q167.02-19.12 167.5-19.24L167.5-19.24Q167.66-19 168.66-19 169.66-19 170.46-19.08L170.46-19.08Q173.06-31.04 179.34-31.04L179.34-31.04Q180.14-31.04 180.1-30.44L180.1-30.44Q180.06-30.04 179.82-30.04L179.82-30.04Q177.1-30.04 175.46-27.2 173.82-24.36 172.82-19.24L172.82-19.24Q177.58-19.6 178.62-19.6L178.62-19.6Q178.98-19.6 178.92-19.12 178.86-18.64 178.1-18.64 177.34-18.64 172.54-17.84L172.54-17.84Q172.02-14.88 171.44-9.24 170.86-3.6 170.5-0.64 170.14 2.32 169.66 4.56 169.18 6.8 168.5 8.68L168.5 8.68Q167.1 12.52 164.46 12.52ZM164.5 11.36L164.5 11.36Q165.74 11.36 166.38 9.28L166.38 9.28Q167.1 7 167.42 4.52L167.42 4.52Q167.9 0.8 168.26-3.12L168.26-3.12Q165.26 3.24 164.62 5.28L164.62 5.28Q163.54 8.72 163.54 10.04 163.54 11.36 164.5 11.36ZM180.54-24.6L180.54-24.6Q180.06-24.6 180.02-25.4L180.02-25.4Q180.02-27.92 180.88-30.04 181.74-32.16 183.02-32.16L183.02-32.16Q183.5-32.16 183.5-31.56L183.5-31.56Q183.22-31.12 182.98-30.76 182.74-30.4 182.48-29.92 182.22-29.44 181.94-28.84 181.66-28.24 181.42-27.64L181.42-27.64Q180.9-26.32 180.9-25.08L180.9-25.08Q180.9-24.6 180.54-24.6ZM180.9-17.32L180.9-17.32Q179.34-17.32 179.34-18.6L179.34-18.6Q179.34-19.08 179.74-19.2L179.74-19.2Q179.78-19.24 179.86-19.24L179.86-19.24Q180.1-18.96 180.76-18.96 181.42-18.96 182.86-19.04L182.86-19.04Q184.74-24.12 186.46-24.12L186.46-24.12Q187.14-24.12 187.14-23.36L187.14-23.36Q186.5-21.76 185.7-19.24L185.7-19.24Q189.66-19.68 190.86-19.68L190.86-19.68Q191.18-19.68 191.18-19.36L191.18-19.36Q191.18-18.72 190.34-18.72L190.34-18.72Q189.9-18.72 185.26-17.88L185.26-17.88Q182.1-7.88 182.1-1.68 182.1 4.52 184.58 4.52L184.58 4.52Q185.58 4.52 186.46 3.66 187.34 2.8 187.7 1.96L187.7 1.96Q187.86 1.52 188.38 1.72L188.38 1.72Q188.62 1.8 188.54 1.96L188.54 1.96Q188.3 2.48 187.94 3.16 187.58 3.84 186.54 4.84 185.5 5.84 184.42 5.84L184.42 5.84Q179.66 5.84 179.66-2.44L179.66-2.44Q179.66-9.44 182.26-17.4L182.26-17.4Q181.7-17.32 180.9-17.32ZM192.93-1.36L192.93-1.36Q192.93 1.44 194.73 1.44L194.73 1.44Q196.41 1.44 197.87-1.32 199.33-4.08 199.33-8.28L199.33-8.28Q199.33-10.32 198.59-14.04 197.85-17.76 197.85-18.9 197.85-20.04 197.93-20.4L197.93-20.4Q197.41-19.56 194.93-14.82 192.45-10.08 190.53-7.32L190.53-7.32Q190.37-7.16 190.09-7.22 189.81-7.28 189.63-7.46 189.45-7.64 189.45-7.72 189.45-7.8 189.49-7.84L189.49-7.84Q191.37-10.56 193.87-15.34 196.37-20.12 198.05-22.48 199.73-24.84 201.37-24.84L201.37-24.84Q202.21-24.84 202.21-24.12L202.21-24.12Q202.21-23.64 201.53-22.84L201.53-22.84Q199.37-20.4 199.37-17.84L199.37-17.84Q199.37-16.32 200.53-11.98 201.69-7.64 201.69-5.68L201.69-5.68Q201.69-2.16 199.73 0.3 197.77 2.76 195.29 2.76L195.29 2.76Q191.77 2.76 191.77-1.28L191.77-1.28Q191.77-4.32 193.63-7.64 195.49-10.96 197.37-12.12L197.37-12.12Q197.73-12.36 197.83-11.84 197.93-11.32 197.69-11.16L197.69-11.16Q195.57-9.96 194.01-6.04L194.01-6.04Q192.93-3.28 192.93-1.36Z" opacity="1" transform="matrix(1,0,0,1,0,0)" fill="#22222c" class="wordmark-text-0" data-fill-palette-color="primary" id="text-0"></path></svg></g></svg></g></svg></g></svg></g><g transform="matrix(1,0,0,1,136.1193142676418,0)"><svg viewBox="0 0 123.28137146471636 123.28137146471636" height="123.28137146471636" width="123.28137146471636"><g><svg></svg></g><g id="icon-0"><svg viewBox="0 0 123.28137146471636 123.28137146471636" height="123.28137146471636" width="123.28137146471636"><g><path xmlns="http://www.w3.org/2000/svg" d="M36.984 123.281c-20.426 0-36.984-16.558-36.984-36.984v-49.313c0-20.426 16.558-36.984 36.984-36.984h49.313c20.426 0 36.984 16.558 36.984 36.984v49.313c0 20.426-16.558 36.984-36.984 36.984z" fill="#3d5165" fill-rule="nonzero" stroke="none" stroke-width="1" stroke-linecap="butt" stroke-linejoin="miter" stroke-miterlimit="10" stroke-dasharray="" stroke-dashoffset="0" font-family="none" font-weight="none" font-size="none" text-anchor="none" style="mix-blend-mode: normal" data-fill-palette-color="accent"></path></g><g transform="matrix(1,0,0,1,26.904887431549653,24.656274292943273)"><svg viewBox="0 0 69.47159660161705 73.96882287882981" height="73.96882287882981" width="69.47159660161705"><g><svg xmlns="http://www.w3.org/2000/svg" xmlns:xlink="http://www.w3.org/1999/xlink" version="1.1" x="0" y="0" viewBox="15.5649995803833 0.000034302473068237305 480.8699951171875 511.9989929199219" style="enable-background:new 0 0 512 512;" xml:space="preserve" height="73.96882287882981" width="69.47159660161705" class="icon-s-0" data-fill-palette-color="quaternary" id="s-0"><g fill="#ffffff" data-fill-palette-color="quaternary"><g fill="#ffffff" data-fill-palette-color="quaternary"><g fill="#ffffff" data-fill-palette-color="quaternary"><g fill="#ffffff" data-fill-palette-color="quaternary"><path d="M481.159 281.863c1.578 0 3.16-1.053 4.213-2.109 1.052-1.053 2.11-2.629 2.11-4.797 0-1.584-1.059-3.16-2.11-4.219-1.053-1.109-2.635-2.105-4.213-2.105-2.053 0-3.632 0.996-4.683 2.105-1.058 1.059-1.584 2.635-1.584 4.219 0 2.168 0.526 3.744 1.584 4.797C477.527 280.811 479.106 281.863 481.159 281.863zM491.695 264.355c2.636 3.164 4.74 6.914 4.74 10.602 0 4.27-2.104 8.547-4.74 11.184-3.161 2.629-6.85 4.211-10.536 4.211-4.156 0-8.376-1.582-11.007-4.211-2.635-3.227-4.219-6.914-4.219-11.184 0-3.688 1.584-7.965 4.219-10.602 3.162-2.629 6.851-4.211 11.007-4.211C485.372 260.145 489.061 261.727 491.695 264.355z" fill="#ffffff" data-fill-palette-color="quaternary"></path><path d="M449.664 133.395v40.339c0 2.637-2.053 4.74-4.158 4.74-2.634 0-4.743-2.104-4.743-4.74v-40.339c0-2.629 2.109-4.213 4.743-4.213C447.611 129.182 449.664 130.766 449.664 133.395z" fill="#ffffff" data-fill-palette-color="quaternary"></path><path d="M458.09 341.756v32.896c0 2.637-2.104 4.275-4.738 4.275h-22.011v-8.49h17.798v-23.887h-17.798v-9.016h22.011C455.986 337.535 458.09 339.119 458.09 341.756z" fill="#ffffff" data-fill-palette-color="quaternary"></path><path d="M439.185 490.804c2.636 0 4.74 2.105 4.74 4.74 0 2.111-2.104 4.213-4.74 4.213h-23.068c-2.104 0-4.214-2.102-4.214-4.213 0-2.635 2.11-4.74 4.214-4.74H439.185z" fill="#ffffff" data-fill-palette-color="quaternary"></path><path d="M423.96 502.983c2.636 0 4.22 2.104 4.22 4.213 0 2.635-1.584 4.803-4.22 4.803h-49.35c-2.579 0-4.74-2.168-4.74-4.803 0-2.109 2.161-4.213 4.74-4.213H423.96z" fill="#ffffff" data-fill-palette-color="quaternary"></path><path d="M436.55 58.114c2.108 1.051 3.16 4.27 1.577 6.379 0 0.527-0.526 1.053-1.577 1.578l-15.751 9.549c-2.104 1.051-5.208 0-6.26-2.111-1.059-2.109-0.526-4.801 1.577-5.854l9.427-5.797-9.427-5.328c-2.104-1.053-2.636-4.213-1.577-6.381 1.052-2.104 4.156-2.635 6.26-1.578L436.55 58.114z" fill="#ffffff" data-fill-palette-color="quaternary"></path><path d="M462.311 188.549v-68.382c0-2.693-1.059-4.797-2.637-6.906-2.11-1.584-4.219-2.635-6.848-2.635h-28.34c-2.63 0-4.74 1.051-6.26 2.635-2.11 2.109-3.162 4.213-3.162 6.906v68.382c0 2.629 1.052 5.322 3.162 6.906 1.52 1.578 3.63 2.635 6.26 2.635h28.34c2.629 0 4.737-1.057 6.848-2.635C461.252 193.871 462.311 191.178 462.311 188.549zM471.205 120.167v68.382c0 5.322-2.109 9.541-5.271 13.287-3.623 3.16-8.37 5.27-13.107 5.27h-28.34c-4.74 0-9.422-2.109-12.584-5.27-3.687-3.746-5.796-7.965-5.796-13.287v-68.382c0-4.797 2.109-9.541 5.796-13.287 3.162-3.16 7.844-5.27 12.584-5.27h28.34c4.737 0 9.484 2.109 13.107 5.27C469.096 110.625 471.205 115.37 471.205 120.167z" fill="#ffffff" data-fill-palette-color="quaternary"></path><path d="M394.574 370.965c1.052-1.051 2.104-3.219 2.104-5.855 0-2.104-1.052-4.213-2.104-5.855-1.585-1.578-3.688-2.629-6.323-2.629-2.108 0-4.156 1.051-5.739 2.629-1.579 1.643-2.63 3.752-2.63 5.855 0 2.637 1.051 4.805 2.63 5.855 1.583 1.582 3.631 2.635 5.739 2.635C390.886 373.6 392.989 372.547 394.574 370.965zM405.579 365.109c0 4.805-2.109 9.016-4.683 12.18-3.16 3.215-7.907 5.326-12.646 5.326-4.683 0-8.901-2.111-12.063-5.326-3.155-3.164-5.267-7.375-5.267-12.18 0-4.738 2.111-9.016 5.267-12.176 3.161-3.219 7.38-5.324 12.063-5.324 4.738 0 9.485 2.105 12.646 5.324C403.47 356.094 405.579 360.371 405.579 365.109z" fill="#ffffff" data-fill-palette-color="quaternary"></path><path d="M422.383 414.402V296.207h-68.206v118.195l34.074 54.095L422.383 414.402zM431.341 378.928v36.59c0 0.994 0 2.109-0.532 2.635l-38.87 60.944c-1.577 2.102-4.214 3.219-6.323 1.578-0.469-0.527-0.995-1.053-1.521-1.578l-38.346-61.47c0-0.533-0.525-1.639-0.525-2.109v-36.59-8.49-23.887-9.016-46.131c0-2.104 2.105-4.213 4.74-4.213h77.156c2.638 0 4.221 2.109 4.221 4.213v46.131 9.016 23.887V378.928z" fill="#ffffff" data-fill-palette-color="quaternary"></path><path d="M208.756 18.887c-0.525-2.109 0.526-4.801 3.162-5.328l7.843-2.104c2.636-0.531 4.746 0.527 5.272 3.219 1.051 2.104-0.526 4.74-3.163 5.266l-7.844 2.109C211.918 22.575 209.282 21.524 208.756 18.887z" fill="#ffffff" data-fill-palette-color="quaternary"></path><path d="M214.027 33.758c1.053 2.637-0.526 4.74-3.161 5.797-2.11 0.527-4.746-1.057-5.271-3.16l-2.11-7.965c-0.525-2.637 1.058-4.803 3.162-5.855 2.635-0.525 4.746 1.053 5.271 3.219L214.027 33.758z" fill="#ffffff" data-fill-palette-color="quaternary"></path><path d="M208.23 10.924c0.525 2.109-1.052 4.803-3.162 5.328-2.635 0.525-4.739-0.525-5.796-3.219l-1.521-7.432c-1.052-2.637 0.526-4.746 3.104-5.271 2.105-1.053 4.74 0.525 5.266 3.162L208.23 10.924z" fill="#ffffff" data-fill-palette-color="quaternary"></path><path d="M199.797 25.793l-7.844 2.111c-2.636 1.051-4.739-0.527-5.265-3.162-1.058-2.168 0.526-4.803 3.162-5.328l7.901-2.105c2.046-0.531 4.682 0.527 5.209 3.156C203.485 22.575 202.433 25.268 199.797 25.793z" fill="#ffffff" data-fill-palette-color="quaternary"></path><path d="M164.672 409.664c0-0.527-0.526-1.051-1.052-1.578-0.526-0.533-1.052-1.117-2.109-1.117-0.526 0-1.578 0.584-2.104 1.117-0.525 0.527-0.525 1.051-0.525 1.578 0 1.051 0 1.578 0.525 2.109 0.526 0.525 1.578 1.051 2.104 1.051 1.057 0 1.583-0.525 2.109-1.051C164.146 411.242 164.672 410.715 164.672 409.664zM169.886 401.699c2.104 2.109 3.688 4.746 3.688 7.965 0 3.688-1.584 6.324-3.688 8.488-2.11 2.105-5.214 3.688-8.375 3.688-3.162 0-6.323-1.582-8.37-3.688-2.167-2.164-3.219-4.801-3.219-8.488 0-3.219 1.052-5.855 3.219-7.965 2.047-2.105 5.208-3.688 8.37-3.688C164.672 398.012 167.776 399.594 169.886 401.699z" fill="#ffffff" data-fill-palette-color="quaternary"></path><path d="M60.701 341.756c0-2.637 2.11-4.221 4.746-4.221h279.777v9.016H69.66v23.887h275.564v8.49H65.446c-2.636 0-4.746-1.639-4.746-4.275V341.756z" fill="#ffffff" data-fill-palette-color="quaternary"></path><path d="M187.74 182.162c1.052-2.104 3.688-2.629 5.797-1.053 1.053 0.527 1.578 1.053 2.104 2.168l1.583 5.271 4.156-6.387c1.579-2.104 4.214-2.629 6.323-1.053 1.052 0.527 1.578 1.053 1.578 2.168l2.11 5.271 4.213-6.387c0.994-2.104 4.156-2.629 6.266-1.053 0.526 0.527 1.052 1.053 1.578 2.168l2.11 5.271 3.631-6.387c1.64-2.104 4.213-2.629 6.322-1.053 1.052 0.527 1.578 1.053 2.104 2.168l1.583 5.271 4.214-6.387c1.521-2.104 4.156-2.629 6.266-1.053 0.525 0.527 1.578 1.053 1.578 2.168l2.11 5.271 4.213-6.387c1.059-2.104 3.631-2.629 5.741-1.053 1.051 0.527 1.578 1.053 2.104 2.168l1.583 5.271 4.213-6.387c1.584-2.104 4.214-2.629 6.323-1.053 0.995 0.527 1.521 1.053 1.521 2.168l2.109 5.271 4.213-6.387c1.058-2.104 4.22-2.629 5.74-1.053 1.053 0.527 1.635 1.053 2.104 2.168l1.641 5.271 4.156-6.387c1.583-2.104 4.214-2.629 6.322-1.053 1.052 0.527 1.584 1.053 1.584 2.168l2.047 5.271 4.215-6.387c1.582-2.104 4.218-2.629 6.321-1.053 0.525 0.527 1.585 1.053 1.585 2.168l2.104 5.271 4.156-6.387c1.057-2.104 3.687-2.629 5.798-1.053 1.051 0.527 1.582 1.053 2.109 2.168l1.577 5.271 4.156-6.387c1.584-2.104 4.219-2.629 6.324-1.053 1.051 0.527 1.582 1.053 1.582 2.168l2.104 5.271 4.22-6.387c1.051-2.104 3.623-2.629 5.733-1.053 1.053 0.527 1.584 1.053 2.11 2.168l1.577 5.271 4.214-6.387c1.526-2.104 4.163-2.629 6.267-1.053 1.052 0.527 1.583 1.053 1.583 2.168l4.213 11.063h8.896l-0.526-80.027-320.695 59.89 5.792 12.234 0.995-3.16c1.058-2.168 3.688-3.744 5.797-2.691 1.052 0.523 2.11 1.576 2.636 2.691l2.109 5.271 4.156-6.387c1.052-2.104 3.688-2.629 5.792-1.053 1.058 0.527 1.583 1.053 2.109 2.168l1.578 5.271 4.22-6.387c1.521-2.104 4.156-2.629 6.26-1.053 1.057 0.527 1.583 1.053 1.583 2.168l2.11 5.271 4.213-6.387c1.052-2.104 4.156-2.629 5.734-1.053 1.058 0.527 1.583 1.053 2.11 2.168l1.578 5.271 4.219-6.387c1.578-2.104 4.214-2.629 6.26-1.053 1.058 0.527 1.584 1.053 1.584 2.168l2.109 5.271 4.213-6.387c1.052-2.104 4.156-2.629 6.324-1.053 0.525 0.527 1.051 1.053 1.578 2.168l2.052 5.271 4.214-6.387c1.052-2.104 3.687-2.629 5.797-1.053 1.051 0.527 1.577 1.053 2.046 2.168l1.584 5.271 4.214-6.387c1.577-2.104 4.213-2.629 6.322-1.053 0.526 0.527 1.579 1.053 1.579 2.168l2.052 5.271L187.74 182.162zM142.078 202.83c-2.635 1.115-5.214-0.527-5.74-2.637l-2.104-5.266-4.219 6.381c-0.527 0.527-1.053 0.994-2.104 1.521-2.109 1.115-4.745-0.527-5.797-2.637l-1.583-5.266-4.157 6.381c-0.525 0.527-1.578 0.994-2.629 1.521-2.11 1.115-4.746-0.527-5.271-2.637l-2.11-5.266-4.157 6.381c-0.526 0.527-1.052 0.994-2.104 1.521-2.636 1.115-4.746-0.527-5.797-2.637l-2.109-5.266-3.688 6.381c-0.526 0.527-1.521 0.994-2.573 1.521-2.109 1.115-4.745-0.527-5.797-2.637l-0.526-2.104-0.532 2.104c-0.526 1.115-1.578 2.109-2.63 2.637-2.052 1.115-4.745 0-5.74-2.111l-12.12-28.098-0.526-1.053c-0.469-2.635 1.057-4.744 3.688-5.271l331.236-62.052h0.533c2.63 0 4.739 2.109 4.739 4.74l0.525 89.63c0 2.693-2.109 4.797-4.738 4.797h-16.277c-2.109 0-3.688-1.576-4.214-3.219l-2.052-5.266-4.213 6.381c-0.527 0.527-1.054 0.994-2.11 1.521-2.104 1.115-4.739-0.527-5.791-2.637l-1.585-5.266-4.156 6.381c-0.525 0.527-1.577 0.994-2.635 1.521-2.104 1.115-4.739-0.527-5.267-2.637l-2.108-5.266-4.157 6.381c-0.524 0.527-1.052 0.994-2.108 1.521-2.631 1.115-4.74-0.527-5.792-2.637l-2.109-5.266-4.213 6.381c-0.526 0.527-1.059 0.994-2.053 1.521-2.104 1.115-4.741-0.527-5.792-2.637l-1.584-5.266-4.214 6.381c-0.526 0.527-1.583 0.994-2.108 1.521-2.573 1.115-5.209-0.527-5.734-2.637l-2.11-5.266-4.213 6.381c-0.526 0.527-1.059 0.994-2.109 1.521-2.109 1.115-4.739-0.527-5.734-2.637l-1.584-5.266-4.213 6.381c-0.526 0.527-1.584 0.994-2.636 1.521-2.109 1.115-4.682-0.527-5.209-2.637l-2.108-5.266-4.215 6.381c-0.525 0.527-1.058 0.994-2.109 1.521-2.635 1.115-4.739-0.527-5.797-2.637l-2.048-5.266-3.688 6.381c-0.525 0.527-1.583 0.994-2.635 1.521-2.11 1.115-4.74-0.527-5.797-2.637l-1.578-5.266-4.157 6.381c-0.525 0.527-1.058 0.994-2.11 1.521-2.635 1.115-5.271-0.527-5.797-2.637l-2.047-5.266-4.213 6.381c-0.532 0.527-1.058 0.994-2.11 1.521-2.11 1.115-4.739-0.527-5.797-2.637l-1.578-5.266-4.157 6.381c-0.526 0.527-1.583 0.994-2.109 1.521-2.636 1.115-5.271-0.527-5.797-2.637l-2.104-5.266-4.219 6.381c-0.525 0.527-0.995 0.994-2.046 1.521-2.11 1.115-4.74-0.527-5.797-2.637l-1.578-5.266-4.219 6.381c-0.526 0.527-1.578 0.994-2.629 1.521-2.052 1.115-4.689-0.527-5.214-2.637l-2.104-5.266-4.219 6.381c-0.526 0.527-1.052 0.994-2.104 1.521-2.579 1.115-4.683-0.527-5.74-2.637l-2.104-5.266-4.219 6.381c-0.526 0.527-1.052 0.994-2.104 1.521-2.052 1.115-4.745-0.527-5.797-2.637l-1.52-5.266-4.22 6.381C143.656 201.836 142.604 202.303 142.078 202.83z" fill="#ffffff" data-fill-palette-color="quaternary"></path><polygon points="40.8,245.273 43.372,253.238 35.002,255.873 32.367,247.908     " fill="#ffffff" data-fill-palette-color="quaternary"></polygon><polygon points="37.107,263.832 28.679,266.467 26.569,258.566 35.002,255.873     " fill="#ffffff" data-fill-palette-color="quaternary"></polygon><polygon points="30.257,239.418 32.367,247.908 23.997,250.602 21.887,242.111     " fill="#ffffff" data-fill-palette-color="quaternary"></polygon><polygon points="23.997,250.602 26.569,258.566 18.2,261.195 15.565,252.711     " fill="#ffffff" data-fill-palette-color="quaternary"></polygon></g></g></g></g></svg></g></svg></g></svg></g></svg></g><g></g></svg></g><defs></defs></svg><rect width="395.52" height="233.54558601943467" fill="none" stroke="none" visibility="hidden"></rect></g></svg></g></svg>