<svg xmlns="http://www.w3.org/2000/svg" version="1.1" xmlns:xlink="http://www.w3.org/1999/xlink" xmlns:svgjs="http://svgjs.dev/svgjs" width="128" height="128" viewBox="0 0 128 128"><g transform="matrix(0.8046875,0,0,0.8046875,12.314520997757207,9.958606291118414)"><svg viewBox="0 0 90 95" data-background-color="#ffffff" preserveAspectRatio="xMidYMid meet" height="135" width="128" xmlns="http://www.w3.org/2000/svg" xmlns:xlink="http://www.w3.org/1999/xlink"><g id="tight-bounds" transform="matrix(1,0,0,1,0.1620690310859345,-0.24049999999999727)"><svg viewBox="0 0 89.67586193782815 95.481" height="95.481" width="89.67586193782815"><g><svg viewBox="0 0 89.67586193782815 95.481" height="95.481" width="89.67586193782815"><g><svg viewBox="0 0 89.67586193782815 95.481" height="95.481" width="89.67586193782815"><g id="textblocktransform"><svg viewBox="0 0 89.67586193782815 95.481" height="95.481" width="89.67586193782815" id="textblock"><g><svg viewBox="0 0 89.67586193782815 95.481" height="95.481" width="89.67586193782815"><g><svg viewBox="0 0 89.67586193782815 95.481" height="95.481" width="89.67586193782815"><g><svg xmlns="http://www.w3.org/2000/svg" xmlns:xlink="http://www.w3.org/1999/xlink" version="1.1" x="0" y="0" viewBox="15.565 0.000035308342762989386 480.87000000000006 511.99896469165725" style="enable-background:new 0 0 512 512;" xml:space="preserve" height="95.481" width="89.67586193782815" class="icon-icon-0" data-fill-palette-color="accent" id="icon-0"><g fill="#3d5165" data-fill-palette-color="accent"><g fill="#3d5165" data-fill-palette-color="accent"><g fill="#3d5165" data-fill-palette-color="accent"><g fill="#3d5165" data-fill-palette-color="accent"><path d="M481.159 281.863c1.578 0 3.16-1.053 4.213-2.109 1.052-1.053 2.11-2.629 2.11-4.797 0-1.584-1.059-3.16-2.11-4.219-1.053-1.109-2.635-2.105-4.213-2.105-2.053 0-3.632 0.996-4.683 2.105-1.058 1.059-1.584 2.635-1.584 4.219 0 2.168 0.526 3.744 1.584 4.797C477.527 280.811 479.106 281.863 481.159 281.863zM491.695 264.355c2.636 3.164 4.74 6.914 4.74 10.602 0 4.27-2.104 8.547-4.74 11.184-3.161 2.629-6.85 4.211-10.536 4.211-4.156 0-8.376-1.582-11.007-4.211-2.635-3.227-4.219-6.914-4.219-11.184 0-3.688 1.584-7.965 4.219-10.602 3.162-2.629 6.851-4.211 11.007-4.211C485.372 260.145 489.061 261.727 491.695 264.355z" fill="#3d5165" data-fill-palette-color="accent"></path><path d="M449.664 133.395v40.339c0 2.637-2.053 4.74-4.158 4.74-2.634 0-4.743-2.104-4.743-4.74v-40.339c0-2.629 2.109-4.213 4.743-4.213C447.611 129.182 449.664 130.766 449.664 133.395z" fill="#3d5165" data-fill-palette-color="accent"></path><path d="M458.09 341.756v32.896c0 2.637-2.104 4.275-4.738 4.275h-22.011v-8.49h17.798v-23.887h-17.798v-9.016h22.011C455.986 337.535 458.09 339.119 458.09 341.756z" fill="#3d5165" data-fill-palette-color="accent"></path><path d="M439.185 490.804c2.636 0 4.74 2.105 4.74 4.74 0 2.111-2.104 4.213-4.74 4.213h-23.068c-2.104 0-4.214-2.102-4.214-4.213 0-2.635 2.11-4.74 4.214-4.74H439.185z" fill="#3d5165" data-fill-palette-color="accent"></path><path d="M423.96 502.983c2.636 0 4.22 2.104 4.22 4.213 0 2.635-1.584 4.803-4.22 4.803h-49.35c-2.579 0-4.74-2.168-4.74-4.803 0-2.109 2.161-4.213 4.74-4.213H423.96z" fill="#3d5165" data-fill-palette-color="accent"></path><path d="M436.55 58.114c2.108 1.051 3.16 4.27 1.577 6.379 0 0.527-0.526 1.053-1.577 1.578l-15.751 9.549c-2.104 1.051-5.208 0-6.26-2.111-1.059-2.109-0.526-4.801 1.577-5.854l9.427-5.797-9.427-5.328c-2.104-1.053-2.636-4.213-1.577-6.381 1.052-2.104 4.156-2.635 6.26-1.578L436.55 58.114z" fill="#3d5165" data-fill-palette-color="accent"></path><path d="M462.311 188.549v-68.382c0-2.693-1.059-4.797-2.637-6.906-2.11-1.584-4.219-2.635-6.848-2.635h-28.34c-2.63 0-4.74 1.051-6.26 2.635-2.11 2.109-3.162 4.213-3.162 6.906v68.382c0 2.629 1.052 5.322 3.162 6.906 1.52 1.578 3.63 2.635 6.26 2.635h28.34c2.629 0 4.737-1.057 6.848-2.635C461.252 193.871 462.311 191.178 462.311 188.549zM471.205 120.167v68.382c0 5.322-2.109 9.541-5.271 13.287-3.623 3.16-8.37 5.27-13.107 5.27h-28.34c-4.74 0-9.422-2.109-12.584-5.27-3.687-3.746-5.796-7.965-5.796-13.287v-68.382c0-4.797 2.109-9.541 5.796-13.287 3.162-3.16 7.844-5.27 12.584-5.27h28.34c4.737 0 9.484 2.109 13.107 5.27C469.096 110.625 471.205 115.37 471.205 120.167z" fill="#3d5165" data-fill-palette-color="accent"></path><path d="M394.574 370.965c1.052-1.051 2.104-3.219 2.104-5.855 0-2.104-1.052-4.213-2.104-5.855-1.585-1.578-3.688-2.629-6.323-2.629-2.108 0-4.156 1.051-5.739 2.629-1.579 1.643-2.63 3.752-2.63 5.855 0 2.637 1.051 4.805 2.63 5.855 1.583 1.582 3.631 2.635 5.739 2.635C390.886 373.6 392.989 372.547 394.574 370.965zM405.579 365.109c0 4.805-2.109 9.016-4.683 12.18-3.16 3.215-7.907 5.326-12.646 5.326-4.683 0-8.901-2.111-12.063-5.326-3.155-3.164-5.267-7.375-5.267-12.18 0-4.738 2.111-9.016 5.267-12.176 3.161-3.219 7.38-5.324 12.063-5.324 4.738 0 9.485 2.105 12.646 5.324C403.47 356.094 405.579 360.371 405.579 365.109z" fill="#3d5165" data-fill-palette-color="accent"></path><path d="M422.383 414.402V296.207h-68.206v118.195l34.074 54.095L422.383 414.402zM431.341 378.928v36.59c0 0.994 0 2.109-0.532 2.635l-38.87 60.944c-1.577 2.102-4.214 3.219-6.323 1.578-0.469-0.527-0.995-1.053-1.521-1.578l-38.346-61.47c0-0.533-0.525-1.639-0.525-2.109v-36.59-8.49-23.887-9.016-46.131c0-2.104 2.105-4.213 4.74-4.213h77.156c2.638 0 4.221 2.109 4.221 4.213v46.131 9.016 23.887V378.928z" fill="#3d5165" data-fill-palette-color="accent"></path><path d="M208.756 18.887c-0.525-2.109 0.526-4.801 3.162-5.328l7.843-2.104c2.636-0.531 4.746 0.527 5.272 3.219 1.051 2.104-0.526 4.74-3.163 5.266l-7.844 2.109C211.918 22.575 209.282 21.524 208.756 18.887z" fill="#3d5165" data-fill-palette-color="accent"></path><path d="M214.027 33.758c1.053 2.637-0.526 4.74-3.161 5.797-2.11 0.527-4.746-1.057-5.271-3.16l-2.11-7.965c-0.525-2.637 1.058-4.803 3.162-5.855 2.635-0.525 4.746 1.053 5.271 3.219L214.027 33.758z" fill="#3d5165" data-fill-palette-color="accent"></path><path d="M208.23 10.924c0.525 2.109-1.052 4.803-3.162 5.328-2.635 0.525-4.739-0.525-5.796-3.219l-1.521-7.432c-1.052-2.637 0.526-4.746 3.104-5.271 2.105-1.053 4.74 0.525 5.266 3.162L208.23 10.924z" fill="#3d5165" data-fill-palette-color="accent"></path><path d="M199.797 25.793l-7.844 2.111c-2.636 1.051-4.739-0.527-5.265-3.162-1.058-2.168 0.526-4.803 3.162-5.328l7.901-2.105c2.046-0.531 4.682 0.527 5.209 3.156C203.485 22.575 202.433 25.268 199.797 25.793z" fill="#3d5165" data-fill-palette-color="accent"></path><path d="M164.672 409.664c0-0.527-0.526-1.051-1.052-1.578-0.526-0.533-1.052-1.117-2.109-1.117-0.526 0-1.578 0.584-2.104 1.117-0.525 0.527-0.525 1.051-0.525 1.578 0 1.051 0 1.578 0.525 2.109 0.526 0.525 1.578 1.051 2.104 1.051 1.057 0 1.583-0.525 2.109-1.051C164.146 411.242 164.672 410.715 164.672 409.664zM169.886 401.699c2.104 2.109 3.688 4.746 3.688 7.965 0 3.688-1.584 6.324-3.688 8.488-2.11 2.105-5.214 3.688-8.375 3.688-3.162 0-6.323-1.582-8.37-3.688-2.167-2.164-3.219-4.801-3.219-8.488 0-3.219 1.052-5.855 3.219-7.965 2.047-2.105 5.208-3.688 8.37-3.688C164.672 398.012 167.776 399.594 169.886 401.699z" fill="#3d5165" data-fill-palette-color="accent"></path><path d="M60.701 341.756c0-2.637 2.11-4.221 4.746-4.221h279.777v9.016H69.66v23.887h275.564v8.49H65.446c-2.636 0-4.746-1.639-4.746-4.275V341.756z" fill="#3d5165" data-fill-palette-color="accent"></path><path d="M187.74 182.162c1.052-2.104 3.688-2.629 5.797-1.053 1.053 0.527 1.578 1.053 2.104 2.168l1.583 5.271 4.156-6.387c1.579-2.104 4.214-2.629 6.323-1.053 1.052 0.527 1.578 1.053 1.578 2.168l2.11 5.271 4.213-6.387c0.994-2.104 4.156-2.629 6.266-1.053 0.526 0.527 1.052 1.053 1.578 2.168l2.11 5.271 3.631-6.387c1.64-2.104 4.213-2.629 6.322-1.053 1.052 0.527 1.578 1.053 2.104 2.168l1.583 5.271 4.214-6.387c1.521-2.104 4.156-2.629 6.266-1.053 0.525 0.527 1.578 1.053 1.578 2.168l2.11 5.271 4.213-6.387c1.059-2.104 3.631-2.629 5.741-1.053 1.051 0.527 1.578 1.053 2.104 2.168l1.583 5.271 4.213-6.387c1.584-2.104 4.214-2.629 6.323-1.053 0.995 0.527 1.521 1.053 1.521 2.168l2.109 5.271 4.213-6.387c1.058-2.104 4.22-2.629 5.74-1.053 1.053 0.527 1.635 1.053 2.104 2.168l1.641 5.271 4.156-6.387c1.583-2.104 4.214-2.629 6.322-1.053 1.052 0.527 1.584 1.053 1.584 2.168l2.047 5.271 4.215-6.387c1.582-2.104 4.218-2.629 6.321-1.053 0.525 0.527 1.585 1.053 1.585 2.168l2.104 5.271 4.156-6.387c1.057-2.104 3.687-2.629 5.798-1.053 1.051 0.527 1.582 1.053 2.109 2.168l1.577 5.271 4.156-6.387c1.584-2.104 4.219-2.629 6.324-1.053 1.051 0.527 1.582 1.053 1.582 2.168l2.104 5.271 4.22-6.387c1.051-2.104 3.623-2.629 5.733-1.053 1.053 0.527 1.584 1.053 2.11 2.168l1.577 5.271 4.214-6.387c1.526-2.104 4.163-2.629 6.267-1.053 1.052 0.527 1.583 1.053 1.583 2.168l4.213 11.063h8.896l-0.526-80.027-320.695 59.89 5.792 12.234 0.995-3.16c1.058-2.168 3.688-3.744 5.797-2.691 1.052 0.523 2.11 1.576 2.636 2.691l2.109 5.271 4.156-6.387c1.052-2.104 3.688-2.629 5.792-1.053 1.058 0.527 1.583 1.053 2.109 2.168l1.578 5.271 4.22-6.387c1.521-2.104 4.156-2.629 6.26-1.053 1.057 0.527 1.583 1.053 1.583 2.168l2.11 5.271 4.213-6.387c1.052-2.104 4.156-2.629 5.734-1.053 1.058 0.527 1.583 1.053 2.11 2.168l1.578 5.271 4.219-6.387c1.578-2.104 4.214-2.629 6.26-1.053 1.058 0.527 1.584 1.053 1.584 2.168l2.109 5.271 4.213-6.387c1.052-2.104 4.156-2.629 6.324-1.053 0.525 0.527 1.051 1.053 1.578 2.168l2.052 5.271 4.214-6.387c1.052-2.104 3.687-2.629 5.797-1.053 1.051 0.527 1.577 1.053 2.046 2.168l1.584 5.271 4.214-6.387c1.577-2.104 4.213-2.629 6.322-1.053 0.526 0.527 1.579 1.053 1.579 2.168l2.052 5.271L187.74 182.162zM142.078 202.83c-2.635 1.115-5.214-0.527-5.74-2.637l-2.104-5.266-4.219 6.381c-0.527 0.527-1.053 0.994-2.104 1.521-2.109 1.115-4.745-0.527-5.797-2.637l-1.583-5.266-4.157 6.381c-0.525 0.527-1.578 0.994-2.629 1.521-2.11 1.115-4.746-0.527-5.271-2.637l-2.11-5.266-4.157 6.381c-0.526 0.527-1.052 0.994-2.104 1.521-2.636 1.115-4.746-0.527-5.797-2.637l-2.109-5.266-3.688 6.381c-0.526 0.527-1.521 0.994-2.573 1.521-2.109 1.115-4.745-0.527-5.797-2.637l-0.526-2.104-0.532 2.104c-0.526 1.115-1.578 2.109-2.63 2.637-2.052 1.115-4.745 0-5.74-2.111l-12.12-28.098-0.526-1.053c-0.469-2.635 1.057-4.744 3.688-5.271l331.236-62.052h0.533c2.63 0 4.739 2.109 4.739 4.74l0.525 89.63c0 2.693-2.109 4.797-4.738 4.797h-16.277c-2.109 0-3.688-1.576-4.214-3.219l-2.052-5.266-4.213 6.381c-0.527 0.527-1.054 0.994-2.11 1.521-2.104 1.115-4.739-0.527-5.791-2.637l-1.585-5.266-4.156 6.381c-0.525 0.527-1.577 0.994-2.635 1.521-2.104 1.115-4.739-0.527-5.267-2.637l-2.108-5.266-4.157 6.381c-0.524 0.527-1.052 0.994-2.108 1.521-2.631 1.115-4.74-0.527-5.792-2.637l-2.109-5.266-4.213 6.381c-0.526 0.527-1.059 0.994-2.053 1.521-2.104 1.115-4.741-0.527-5.792-2.637l-1.584-5.266-4.214 6.381c-0.526 0.527-1.583 0.994-2.108 1.521-2.573 1.115-5.209-0.527-5.734-2.637l-2.11-5.266-4.213 6.381c-0.526 0.527-1.059 0.994-2.109 1.521-2.109 1.115-4.739-0.527-5.734-2.637l-1.584-5.266-4.213 6.381c-0.526 0.527-1.584 0.994-2.636 1.521-2.109 1.115-4.682-0.527-5.209-2.637l-2.108-5.266-4.215 6.381c-0.525 0.527-1.058 0.994-2.109 1.521-2.635 1.115-4.739-0.527-5.797-2.637l-2.048-5.266-3.688 6.381c-0.525 0.527-1.583 0.994-2.635 1.521-2.11 1.115-4.74-0.527-5.797-2.637l-1.578-5.266-4.157 6.381c-0.525 0.527-1.058 0.994-2.11 1.521-2.635 1.115-5.271-0.527-5.797-2.637l-2.047-5.266-4.213 6.381c-0.532 0.527-1.058 0.994-2.11 1.521-2.11 1.115-4.739-0.527-5.797-2.637l-1.578-5.266-4.157 6.381c-0.526 0.527-1.583 0.994-2.109 1.521-2.636 1.115-5.271-0.527-5.797-2.637l-2.104-5.266-4.219 6.381c-0.525 0.527-0.995 0.994-2.046 1.521-2.11 1.115-4.74-0.527-5.797-2.637l-1.578-5.266-4.219 6.381c-0.526 0.527-1.578 0.994-2.629 1.521-2.052 1.115-4.689-0.527-5.214-2.637l-2.104-5.266-4.219 6.381c-0.526 0.527-1.052 0.994-2.104 1.521-2.579 1.115-4.683-0.527-5.74-2.637l-2.104-5.266-4.219 6.381c-0.526 0.527-1.052 0.994-2.104 1.521-2.052 1.115-4.745-0.527-5.797-2.637l-1.52-5.266-4.22 6.381C143.656 201.836 142.604 202.303 142.078 202.83z" fill="#3d5165" data-fill-palette-color="accent"></path><polygon points="40.8,245.273 43.372,253.238 35.002,255.873 32.367,247.908     " fill="#3d5165" data-fill-palette-color="accent"></polygon><polygon points="37.107,263.832 28.679,266.467 26.569,258.566 35.002,255.873     " fill="#3d5165" data-fill-palette-color="accent"></polygon><polygon points="30.257,239.418 32.367,247.908 23.997,250.602 21.887,242.111     " fill="#3d5165" data-fill-palette-color="accent"></polygon><polygon points="23.997,250.602 26.569,258.566 18.2,261.195 15.565,252.711     " fill="#3d5165" data-fill-palette-color="accent"></polygon></g></g></g></g></svg></g></svg></g></svg></g></svg></g></svg></g><g></g></svg></g><defs></defs></svg><rect width="89.67586193782815" height="95.481" fill="none" stroke="none" visibility="hidden"></rect></g></svg></g></svg>